/* XPM */
static char * add_song_xpm[] = {
"57 26 263 2",
"  	c None",
". 	c #000000",
"+ 	c #000001",
"@ 	c #000102",
"# 	c #000103",
"$ 	c #000206",
"% 	c #000307",
"& 	c #000308",
"* 	c #00040A",
"= 	c #00060C",
"- 	c #00060D",
"; 	c #00070F",
"> 	c #000811",
", 	c #000812",
"' 	c #000914",
") 	c #000A15",
"! 	c #000A17",
"~ 	c #000C19",
"{ 	c #000D1A",
"] 	c #000D1B",
"^ 	c #000E1E",
"/ 	c #000F1F",
"( 	c #000F20",
"_ 	c #001123",
": 	c #001224",
"< 	c #001225",
"[ 	c #001328",
"} 	c #001429",
"| 	c #00142A",
"1 	c #00152C",
"2 	c #00152E",
"3 	c #00172F",
"4 	c #001831",
"5 	c #001833",
"6 	c #001934",
"7 	c #001A36",
"8 	c #001A37",
"9 	c #001B39",
"0 	c #001D3B",
"a 	c #001D3C",
"b 	c #001E3D",
"c 	c #001F40",
"d 	c #001F41",
"e 	c #002042",
"f 	c #002244",
"g 	c #002246",
"h 	c #002347",
"i 	c #002448",
"j 	c #00244B",
"k 	c #00254C",
"l 	c #00264D",
"m 	c #002650",
"n 	c #002851",
"o 	c #002952",
"p 	c #002955",
"q 	c #002A56",
"r 	c #00254A",
"s 	c #000204",
"t 	c #000205",
"u 	c #000409",
"v 	c #00050C",
"w 	c #00070E",
"x 	c #000912",
"y 	c #000913",
"z 	c #000A16",
"A 	c #000B17",
"B 	c #000B18",
"C 	c #000C1A",
"D 	c #000E1C",
"E 	c #000E1D",
"F 	c #001020",
"G 	c #001021",
"H 	c #001124",
"I 	c #001226",
"J 	c #00132A",
"K 	c #00152B",
"L 	c #00162D",
"M 	c #00162E",
"N 	c #001A35",
"O 	c #001A38",
"P 	c #001C39",
"Q 	c #001D3A",
"R 	c #001E3E",
"S 	c #001F3F",
"T 	c #002143",
"U 	c #002146",
"V 	c #00244A",
"W 	c #00264F",
"X 	c #002750",
"Y 	c #00254D",
"Z 	c #000104",
"` 	c #00050B",
" .	c #000810",
"..	c #000F1E",
"+.	c #001023",
"@.	c #001227",
"#.	c #00152A",
"$.	c #00172E",
"%.	c #001731",
"&.	c #001832",
"*.	c #001933",
"=.	c #001935",
"-.	c #001C38",
";.	c #001C3A",
">.	c #001E3C",
",.	c #001E3F",
"'.	c #002041",
").	c #002043",
"!.	c #002145",
"~.	c #002346",
"{.	c #002348",
"].	c #002449",
"^.	c #00264E",
"/.	c #002751",
"(.	c #000A14",
"_.	c #000207",
":.	c #000309",
"<.	c #001125",
"[.	c #001327",
"}.	c #00162C",
"|.	c #000C18",
"1.	c #000E1F",
"2.	c #001122",
"3.	c #001326",
"4.	c #001329",
"5.	c #001830",
"6.	c #002852",
"7.	c #002953",
"8.	c #000710",
"9.	c #000813",
"0.	c #000C1B",
"a.	c #000D1C",
"b.	c #00142B",
"c.	c #00162F",
"d.	c #001730",
"e.	c #001B38",
"f.	c #001D3D",
"g.	c #002144",
"h.	c #00050D",
"i.	c #00060E",
"j.	c #000711",
"k.	c #000915",
"l.	c #000B19",
"m.	c #000D1D",
"n.	c #000F21",
"o.	c #001022",
"p.	c #001C3B",
"q.	c #00040B",
"r.	c #00060F",
"s.	c #00040C",
"t.	c #002245",
"u.	c #002247",
"v.	c #545D64",
"w.	c #FEFFFC",
"x.	c #545F6A",
"y.	c #00152D",
"z.	c #545D65",
"A.	c #8C9092",
"B.	c #373F46",
"C.	c #E1E3E2",
"D.	c #E1E3E3",
"E.	c #374657",
"F.	c #E1E4E4",
"G.	c #37495D",
"H.	c #E1E4E5",
"I.	c #707E8D",
"J.	c #546778",
"K.	c #E1E5E5",
"L.	c #8C99A6",
"M.	c #8C9AA8",
"N.	c #E1E5E6",
"O.	c #546B82",
"P.	c #002349",
"Q.	c #373D43",
"R.	c #A9ACAD",
"S.	c #70767A",
"T.	c #A9ADAE",
"U.	c #C5C8C8",
"V.	c #A9ADB0",
"W.	c #A9AEB1",
"X.	c #C5C9CA",
"Y.	c #A9AFB2",
"Z.	c #A9AFB3",
"`.	c #A9B0B5",
" +	c #C5CACD",
".+	c #1B2E42",
"++	c #8C969F",
"@+	c #37495C",
"#+	c #1B3046",
"$+	c #546576",
"%+	c #1B3249",
"&+	c #374C62",
"*+	c #546779",
"=+	c #1B3450",
"-+	c #1B3551",
";+	c #374F68",
">+	c #708293",
",+	c #1B3857",
"'+	c #546B81",
")+	c #546B83",
"!+	c #707579",
"~+	c #E1E2E1",
"{+	c #A9ADAF",
"]+	c #545C64",
"^+	c #545D66",
"/+	c #54606B",
"(+	c #707C87",
"_+	c #A9B1B7",
":+	c #546474",
"<+	c #A9B2BA",
"[+	c #A9B3BA",
"}+	c #54677A",
"|+	c #54697E",
"1+	c #A9B4BD",
"2+	c #A9B4BE",
"3+	c #373E46",
"4+	c #545B61",
"5+	c #54606C",
"6+	c #374758",
"7+	c #374859",
"8+	c #546372",
"9+	c #8C97A0",
"0+	c #546574",
"a+	c #546C84",
"b+	c #E1E3E1",
"c+	c #A9B1B6",
"d+	c #A9B1B8",
"e+	c #8C98A2",
"f+	c #374C61",
"g+	c #546A80",
"h+	c #37516C",
"i+	c #8C9CAA",
"j+	c #00050E",
"k+	c #1B232A",
"l+	c #8C9093",
"m+	c #70767B",
"n+	c #37404A",
"o+	c #8C9297",
"p+	c #8C9398",
"q+	c #A9AEB2",
"r+	c #8C949A",
"s+	c #A9AFB4",
"t+	c #8C959B",
"u+	c #A9B0B4",
"v+	c #1B3047",
"w+	c #8C98A3",
"x+	c #374D63",
"y+	c #374D64",
"z+	c #A9B3BC",
"A+	c #37506A",
"B+	c #A9B5BF",
"C+	c #E1E5E7",
"D+	c #37526E",
"E+	c #C5CDD3",
"F+	c #1B3C5C",
"G+	c #00254B",
"H+	c #001428",
"I+	c #001B37",
"J+	c #000408",
"K+	c #00050A",
"L+	c #000B16",
"M+	c #000306",
"N+	c #000002",
". + @ # $ % & * = - ; > , ' ) ! ~ { ] ^ / ( _ : < [ } | 1 2 3 4 5 6 7 8 9 0 a b c d e f g h i j k l m n o p q r g ",
". + # s t & u * v w ; > x y z A B C D E / F G H < I [ J K L M 3 4 5 6 N O P Q a R S d e T U h i V k l W X n Y 7 9 ",
"+ @ Z $ % & * ` v ;  .> y ) z B ~ C E ../ G +.H < @.[ #.1 L $.%.&.*.=.7 -.;.0 >.,.c '.).!.~.{.].r Y ^.W /.k N (._ ",
"+ # t _.:.u * v w ; > x y z A B ~ D E ..( G _ <.I [.J K }.M 3 4 5 6 N O P Q a R S d e T U h i V k Y W X j N ' t _ ",
"@ # t % u u = - w > , y ) ! |.C ] E 1.( 2.H < 3.4.| K 2 3 5.5 6 N 8 9 Q a b S d e f g h {.V k Y ^.n 6.7.a y s t H ",
"@ s t % u & u ` v - ; 8.> 9.' ) ! B ~ 0.a.E 1.( G +.H < @.[ } b.1 L c.d.4 &.6 N 7 e.9 ;.a f.R c d e g.!.G s s t : ",
"# s % & u u * ` h.i.; j., y k.z A l.C ] m.^ / n.o._ <.I [.[ | K 1 M 3 d.&.5 6 7 8 e.;.p.a R ,.c e ).g.g G s s t : ",
"s t % u * u q.v - r.8.> 9.' ) ! B ~ C a.E ^ ( G o.H < I [ } | 1 L M d.%.&.6 =.7 e.9 ;.a f.R c d e g.!.g o.s s t < ",
"s _.& u s.* ` h.i.; 8., y ' z A B C ] a.^ / ( o._ H I [.[ | b.1 M c.d.&.5 6 7 8 e.;.p.a R ,.c e ).g.t.u.o.s t t < ",
"$ % & * = * v - i.8.> , ' ) z B v.w.a.E ^ ( x.w.H < I [ 4.| 1 y.M d.%.&.6 =.7 e.9 ;.0 f.R S d e T !.g h o.s t t < ",
"$ & u * - ` v i.; 8., y ' z A B z.w.a.^ / ( x.w.H I @.[ | b.1 L c.d.4 5 6 N 8 e.P p.a b ,.c '.).g.t.u.{.o.t t t I ",
"% & * ` - v - i.A.w.w.B.) z C.w.C.w.E ^ C.w.D.w.<.I [.E.F.w.F.M 3 G.H.w.I.7 J.w.K.w.L.R S M.w.N.w.O.u.P.2.t t t I ",
"& u * v w v i.Q.R., S.T.z U.V.~ W.w.E X.Y.G Z.w.< @.[ `. +.+++@+#+w.$+%+H.&+*+w.=+-+N.;+>+N.,+'+w.)+{.P._ t t t 3.",
"& * ` v w - i.; !+~+w.{+z w.]+C ^+w.^ w.x.o./+w.I [.4.(+w.F._+3 :+w.*.=.<+[+}+w.0 f.w.|+1+2+).g.w.)+{.V _ t t t 3.",
"u * ` w ; - ; A.~+3+4+{+! w.v.0.^+w.1.w.x.+.5+w.@.[ } 6+7+8+_+9+0+w.6 N <+[+}+w.a f.w.|+1+2+g.!.w.a+P.V _ t t t [.",
"u ` v w > i.; R.~+B.b+{+A V.C.] C.w./ Z.D._ D.w.[.4.| c+F.M 9+d+&.w.e+f+w.e.}+w.a R w.|+g+w.h+i+w.a+V j _ t t t [.",
"* ` j+; > r.8.k+l+T.m+{+n+~ o+W.p+q+( G r+s+t+u+[ } | .+++_+d+v+&.%+w+<+x+9 y+z+f.R 1+A+e '+B+i+w.a+V k H t t t [.",
"s.v w 8., ; j., y ' z A B C ] a.^ / ( o._ H I [.[ | K 1 M c.d.&.5 6 7 8 e.;.p.a R ,.c e 2+C+g D+E+F+j k : t t t [ ",
"= v ;  ., 8.> , ' ) z B ~ C a.E ^ ( G o.H < I [ 4.| 1 y.M d.%.&.6 =.7 e.9 ;.a f.R S d e T !.g h P.V G+Y : t t t [ ",
"- w ; > y 8., y ' z A B C ] a.^ / ( o._ H I @.[ | b.1 M c.d.4 5 6 N 8 e.P p.a b ,.c '.).g.t.u.{.].j k Y < t t $ H+",
"- ;  .> ' > , ' ) z B ~ C a.E ^ ( n.o.H <.I [.4.| K y.M 3 %.&.*.=.7 I+9 ;.0 f.R S d e T !.g u.P.V j Y ^.< t t $ } ",
"w ; > > i.J+u u K+` ` = - - - i.; ; 8.> > , y y ' (.) z L+A B |.~ C { ] ] a.D E ^ ../ ( ( G o.o._ _ H < a.M+t M+} ",
";  .8.` s + + + + + + + + + N+@ @ @ @ @ @ @ @ @ @ # # # # # # # # # # # # Z s s s s s s s s s s t t t t M+M+M+M+} ",
"; ; ` s + + + + + + + + + + N+@ @ @ @ @ @ @ @ @ @ # # # # # # # # # # # Z Z s s s s s s s s s s t t t t t M+% % } ",
"w ` s + + + + + + + + @ @ @ @ @ @ @ @ @ @ # # # # # # # # # # # Z s s s s s s s s s s t t t t t t t t t t $ % % 1 ",
"- v & J+u * K+` ` = - - w ; ;  . .> x x y (.(.) ) z A A B ~ ~ C ] ] a.E E ^ / / / F G G 2._ _ : < < 3.[.[.H+} 1 0 "};
