/* XPM */
static char * ampd2_xpm[] = {
"16 16 5 1",
" 	c None",
".	c #000000",
"+	c #0B7A1F",
"@	c #6E756F",
"#	c #FFFFFF",
"                ",
"           . .  ",
"           .  . ",
"       ...  . . ",
"     ..++.. . . ",
"    .+++.@.  . .",
"  ..++++.@@. . .",
" .++++++.@#. . .",
".+++++++.##. . .",
".+++++++.#.. . .",
".+++++++.##. . .",
" ..+++++.##  . .",
"   .++++.##  . .",
"    .+++.#.  . .",
"     ..++.. . . ",
"       ...  . . "};
