/* XPM */
static char * ampd_xpm[] = {
"16 16 6 1",
" 	c None",
".	c #C0C0C0",
"+	c #000000",
"@	c #0B7A1F",
"#	c #6E756F",
"$	c #FFFFFF",
"................",
"...........+.+..",
".......+++..+.+.",
".....++@@++..+.+",
"....+@@@+#+..+.+",
"..++@@@@+##+.+.+",
".+@@@@@@+#$+.+.+",
"+@@@@@@@+$$+.+.+",
"+@@@@@@@+$++.+.+",
"+@@@@@@@+$$+.+.+",
".++@@@@@+$$+.+.+",
"...+@@@@+$$+.+.+",
"....+@@@+$+..+.+",
".....++@@++..+.+",
".......+++..+.+.",
"............+.+."};
