/* XPM */
static char * back_xpm[] = {
"200 20 52 1",
" 	c None",
".	c #000000",
"+	c #000001",
"@	c #000102",
"#	c #000103",
"$	c #000204",
"%	c #000205",
"&	c #000206",
"*	c #000306",
"=	c #000307",
"-	c #000308",
";	c #000408",
">	c #000409",
",	c #00040A",
"'	c #00050A",
")	c #00050B",
"!	c #00050C",
"~	c #00060C",
"{	c #00060D",
"]	c #00060E",
"^	c #00070E",
"/	c #00070F",
"(	c #000710",
"_	c #000811",
":	c #000812",
"<	c #000913",
"[	c #000914",
"}	c #000A15",
"|	c #000A16",
"1	c #000B17",
"2	c #000B18",
"3	c #000B19",
"4	c #000C19",
"5	c #000C1A",
"6	c #000C1B",
"7	c #000D1B",
"8	c #000D1C",
"9	c #000D1D",
"0	c #000E1D",
"a	c #000E1E",
"b	c #000E1F",
"c	c #000F1F",
"d	c #000F20",
"e	c #000F21",
"f	c #001021",
"g	c #001022",
"h	c #001023",
"i	c #001123",
"j	c #001124",
"k	c #001125",
"l	c #001226",
"m	c #001227",
".........................................++++@@@@####$$$%%%%&***====-;;>>>>,,'')))!!!~{{{{]]]^////(((____::::<<<<[[[}}}}||||11112223444555567778889900aaaabbccdddeeefgggghhhijjjkkkkllllmmmmmmmmmmmmmmmm",
".........................................++++@@@@####$$$%%%%&***====-;;>>>>,,'')))!!!~{{{{]]]^////(((____::::<<<<[[[}}}}||||11112223444555567778889900aaaabbccdddeeefgggghhhijjjkkkkllllmmmmmmmmmmmmmmmm",
".........................................++++@@@@####$$$%%%%&***====-;;>>>>,,'')))!!!~{{{{]]]^////(((____::::<<<<[[[}}}}||||11112223444555567778889900aaaabbccdddeeefgggghhhijjjkkkkllllmmmmmmmmmmmmmmmm",
".........................................++++@@@@####$$$%%%%&***====-;;>>>>,,'')))!!!~{{{{]]]^////(((____::::<<<<[[[}}}}||||11112223444555567778889900aaaabbccdddeeefgggghhhijjjkkkkllllmmmmmmmmmmmmmmmm",
".........................................++++@@@@####$$$%%%%&***====-;;>>>>,,'')))!!!~{{{{]]]^////(((____::::<<<<[[[}}}}||||11112223444555567778889900aaaabbccdddeeefgggghhhijjjkkkkllllmmmmmmmmmmmmmmmm",
".........................................++++@@@@####$$$%%%%&***====-;;>>>>,,'')))!!!~{{{{]]]^////(((____::::<<<<[[[}}}}||||11112223444555567778889900aaaabbccdddeeefgggghhhijjjkkkkllllmmmmmmmmmmmmmmmm",
".........................................++++@@@@####$$$%%%%&***====-;;>>>>,,'')))!!!~{{{{]]]^////(((____::::<<<<[[[}}}}||||11112223444555567778889900aaaabbccdddeeefgggghhhijjjkkkkllllmmmmmmmmmmmmmmmm",
".........................................++++@@@@####$$$%%%%&***====-;;>>>>,,'')))!!!~{{{{]]]^////(((____::::<<<<[[[}}}}||||11112223444555567778889900aaaabbccdddeeefgggghhhijjjkkkkllllmmmmmmmmmmmmmmmm",
".........................................++++@@@@####$$$%%%%&***====-;;>>>>,,'')))!!!~{{{{]]]^////(((____::::<<<<[[[}}}}||||11112223444555567778889900aaaabbccdddeeefgggghhhijjjkkkkllllmmmmmmmmmmmmmmmm",
".........................................++++@@@@####$$$%%%%&***====-;;>>>>,,'')))!!!~{{{{]]]^////(((____::::<<<<[[[}}}}||||11112223444555567778889900aaaabbccdddeeefgggghhhijjjkkkkllllmmmmmmmmmmmmmmmm",
".........................................++++@@@@####$$$%%%%&***====-;;>>>>,,'')))!!!~{{{{]]]^////(((____::::<<<<[[[}}}}||||11112223444555567778889900aaaabbccdddeeefgggghhhijjjkkkkllllmmmmmmmmmmmmmmmm",
".........................................++++@@@@####$$$%%%%&***====-;;>>>>,,'')))!!!~{{{{]]]^////(((____::::<<<<[[[}}}}||||11112223444555567778889900aaaabbccdddeeefgggghhhijjjkkkkllllmmmmmmmmmmmmmmmm",
".........................................++++@@@@####$$$%%%%&***====-;;>>>>,,'')))!!!~{{{{]]]^////(((____::::<<<<[[[}}}}||||11112223444555567778889900aaaabbccdddeeefgggghhhijjjkkkkllllmmmmmmmmmmmmmmmm",
".........................................++++@@@@####$$$%%%%&***====-;;>>>>,,'')))!!!~{{{{]]]^////(((____::::<<<<[[[}}}}||||11112223444555567778889900aaaabbccdddeeefgggghhhijjjkkkkllllmmmmmmmmmmmmmmmm",
".........................................++++@@@@####$$$%%%%&***====-;;>>>>,,'')))!!!~{{{{]]]^////(((____::::<<<<[[[}}}}||||11112223444555567778889900aaaabbccdddeeefgggghhhijjjkkkkllllmmmmmmmmmmmmmmmm",
".........................................++++@@@@####$$$%%%%&***====-;;>>>>,,'')))!!!~{{{{]]]^////(((____::::<<<<[[[}}}}||||11112223444555567778889900aaaabbccdddeeefgggghhhijjjkkkkllllmmmmmmmmmmmmmmmm",
".........................................++++@@@@####$$$%%%%&***====-;;>>>>,,'')))!!!~{{{{]]]^////(((____::::<<<<[[[}}}}||||11112223444555567778889900aaaabbccdddeeefgggghhhijjjkkkkllllmmmmmmmmmmmmmmmm",
".........................................++++@@@@####$$$%%%%&***====-;;>>>>,,'')))!!!~{{{{]]]^////(((____::::<<<<[[[}}}}||||11112223444555567778889900aaaabbccdddeeefgggghhhijjjkkkkllllmmmmmmmmmmmmmmmm",
".........................................++++@@@@####$$$%%%%&***====-;;>>>>,,'')))!!!~{{{{]]]^////(((____::::<<<<[[[}}}}||||11112223444555567778889900aaaabbccdddeeefgggghhhijjjkkkkllllmmmmmmmmmmmmmmmm",
".........................................++++@@@@####$$$%%%%&***====-;;>>>>,,'')))!!!~{{{{]]]^////(((____::::<<<<[[[}}}}||||11112223444555567778889900aaaabbccdddeeefgggghhhijjjkkkkllllmmmmmmmmmmmmmmmm"};
