/* XPM */
static char * cancel_xpm[] = {
"43 26 243 2",
"  	c None",
". 	c #000000",
"+ 	c #000101",
"@ 	c #000203",
"# 	c #000304",
"$ 	c #000307",
"% 	c #000408",
"& 	c #00060A",
"* 	c #00070C",
"= 	c #00070E",
"- 	c #000811",
"; 	c #000912",
"> 	c #000A14",
", 	c #000A15",
"' 	c #000C18",
") 	c #000D19",
"! 	c #000E1B",
"~ 	c #000E1E",
"{ 	c #000F1F",
"] 	c #001122",
"^ 	c #001223",
"/ 	c #001225",
"( 	c #001326",
"_ 	c #001429",
": 	c #00142A",
"< 	c #00152C",
"[ 	c #00172F",
"} 	c #001830",
"| 	c #001833",
"1 	c #001934",
"2 	c #001A36",
"3 	c #001B37",
"4 	c #001B3A",
"5 	c #001D3C",
"6 	c #001E3D",
"7 	c #001F40",
"8 	c #001F41",
"9 	c #002044",
"0 	c #002245",
"a 	c #002347",
"b 	c #00234A",
"c 	c #00244B",
"d 	c #002042",
"e 	c #001E3E",
"f 	c #000100",
"g 	c #000202",
"h 	c #000205",
"i 	c #000305",
"j 	c #000509",
"k 	c #00050B",
"l 	c #00080F",
"m 	c #000911",
"n 	c #000B16",
"o 	c #000C19",
"p 	c #000E1C",
"q 	c #000F1D",
"r 	c #001021",
"s 	c #001123",
"t 	c #001226",
"u 	c #001328",
"v 	c #00152A",
"w 	c #00162C",
"x 	c #00162E",
"y 	c #001832",
"z 	c #001933",
"A 	c #001935",
"B 	c #001C39",
"C 	c #001D3B",
"D 	c #001E3F",
"E 	c #002043",
"F 	c #002146",
"G 	c #001730",
"H 	c #000405",
"I 	c #000507",
"J 	c #000409",
"K 	c #00050A",
"L 	c #00080E",
"M 	c #000810",
"N 	c #000A13",
"O 	c #000B17",
"P 	c #000E1A",
"Q 	c #000E1D",
"R 	c #000F1E",
"S 	c #001020",
"T 	c #001124",
"U 	c #001327",
"V 	c #00152B",
"W 	c #00162D",
"X 	c #00172E",
"Y 	c #001831",
"Z 	c #001C38",
"` 	c #001C3A",
" .	c #001E40",
"..	c #002145",
"+.	c #002147",
"@.	c #000306",
"#.	c #00060B",
"$.	c #00070B",
"%.	c #000C1A",
"&.	c #00101F",
"*.	c #001A38",
"=.	c #002045",
"-.	c #000812",
";.	c #000204",
">.	c #000F20",
",.	c #000407",
"'.	c #00060C",
").	c #00070D",
"!.	c #000913",
"~.	c #000C17",
"{.	c #000D1A",
"].	c #001224",
"^.	c #001325",
"/.	c #001B39",
"(.	c #002246",
"_.	c #002348",
":.	c #00244A",
"<.	c #00060D",
"[.	c #000D1B",
"}.	c #001022",
"|.	c #001329",
"1.	c #00162F",
"2.	c #001731",
"3.	c #001A37",
"4.	c #001B38",
"5.	c #001C3B",
"6.	c #001D3D",
"7.	c #00070F",
"8.	c #000D1C",
"9.	c #001227",
"0.	c #00152D",
"a.	c #001D3E",
"b.	c #000B18",
"c.	c #00142B",
"d.	c #001936",
"e.	c #001C3C",
"f.	c #000A16",
"g.	c #001125",
"h.	c #55687E",
"i.	c #FFFFFF",
"j.	c #001023",
"k.	c #55697F",
"l.	c #001F42",
"m.	c #000910",
"n.	c #8D9196",
"o.	c #38414C",
"p.	c #38424E",
"q.	c #8D949C",
"r.	c #55616D",
"s.	c #E2E4E6",
"t.	c #8D96A0",
"u.	c #8D97A2",
"v.	c #384B61",
"w.	c #384C63",
"x.	c #E2E5E8",
"y.	c #718192",
"z.	c #71767C",
"A.	c #E2E3E4",
"B.	c #1C2531",
"C.	c #555D65",
"D.	c #717880",
"E.	c #AAAEB4",
"F.	c #384350",
"G.	c #1C2A39",
"H.	c #55616E",
"I.	c #1C2D40",
"J.	c #1C2D42",
"K.	c #E2E4E7",
"L.	c #38495B",
"M.	c #717D8B",
"N.	c #1C3148",
"O.	c #556577",
"P.	c #717E8E",
"Q.	c #1C334C",
"R.	c #55677B",
"S.	c #1C3451",
"T.	c #384F69",
"U.	c #AAADB1",
"V.	c #C6C9CD",
"W.	c #55616F",
"X.	c #556374",
"Y.	c #AAB1BA",
"Z.	c #AAB2BA",
"`.	c #55677A",
" +	c #AAB3BD",
".+	c #AAB3BE",
"++	c #E2E5E9",
"@+	c #AAB4BF",
"#+	c #556980",
"$+	c #000F21",
"%+	c #AAAEB2",
"&+	c #38434F",
"*+	c #717983",
"=+	c #556475",
"-+	c #AAB2BB",
";+	c #55687D",
">+	c #38506A",
",+	c #556981",
"'+	c #555C64",
")+	c #38424D",
"!+	c #8D9299",
"~+	c #555F69",
"{+	c #384452",
"]+	c #C6C9CE",
"^+	c #556170",
"/+	c #556576",
"(+	c #8D98A5",
"_+	c #AAB3BC",
":+	c #8D99A8",
"<+	c #AAB4C0",
"[+	c #556A81",
"}+	c #555D66",
"|+	c #AAAEB3",
"1+	c #1C2937",
"2+	c #AAAFB5",
"3+	c #8D959D",
"4+	c #717B87",
"5+	c #384758",
"6+	c #AAB1B8",
"7+	c #384A5E",
"8+	c #556578",
"9+	c #AAB2BC",
"0+	c #1C344E",
"a+	c #1C3551",
"b+	c #718295",
"c+	c #38506D",
"d+	c #AAB5C1",
"e+	c #002247",
"f+	c #002248",
"g+	c #002144",
"h+	c #002349",
"i+	c #002249",
"j+	c #000B15",
"k+	c #000710",
"l+	c #000914",
"m+	c #000D1D",
"n+	c #000001",
"o+	c #000002",
"p+	c #000102",
"q+	c #000103",
"r+	c #000104",
"s+	c #000206",
"t+	c #000E1F",
". + @ # $ % & * = - ; > , ' ) ! ~ { ] ^ / ( _ : < [ } | 1 2 3 4 5 6 7 8 9 0 a b c d e ",
"f g h i % j k * l m ; , n ' o p q { r s / t u v w x [ y z A 2 B C 5 D 7 d E F a 9 G y ",
"+ @ H I J K * L M m N n O o P Q R S s T t U v V W X Y | 1 2 Z ` C e  .8 E ..+.E [ ; { ",
"g # @.j #.$.= l m ; , O ' %.p R &.r s / U u V w X [ y 1 A *.B C 5 D 7 d =.F E X -.;.>.",
"@ i ,.K '.).l - !.> ~.' {.Q R >.] ].^.u : V X [ Y z A 2 /.C 5 D 7 d 9 (._.:.A - ;.;.>.",
"# $ % K * k <.= M - !.> n O o [.p ~ { r }.T t U |.: < W 1.2.y 1 A 3.4.` 5.6.Q ;.;.;.r ",
"@.% j k ).'.).7.- ; > , O ' %.8.Q { >.}.s / 9.u : V 0.x G Y | A 2 4./.5.5 a.~ ;.;.;.r ",
",.J K * L <.= M -.!., n b.o [.p ~ >.r s T t U _ c.< x [ 2.y 1 d.3./.` e.6.D ~ ;.;.h }.",
"% K k = l = 7.- ; > f.O o {.8.Q { r }.T / U u : < 0.1.G y | A 2 4.4 5.6.e  .~ ;.;.h }.",
"J K * l - 7.M ; !., O ' %.[.Q R >.r s g.t u _ c.< x G 2.| 1 2 3./.5.5 h.i.8 { ;.;.h j.",
"& $.= M ; M - !.> n O o [.8.~ { r }.T t U |.: < W 1.G y 1 A 3.4.` 5.6.k.i.l.{ ;.;.h s ",
"'.* l m.!.- ; > n.i.i.o.8.p.i.i.q.s r.i.s.i.t.0.x u.i.i.v.2 w.x.i.y.a.k.i.E >.;.;.h s ",
").L M m > - !.z.A.B.C.D.p E.F.G.i.T H.i.I.J.K.L.M.K.N.O.P.Q.i.R.S.x.T.k.i.9 >.;.;.h T ",
"= l m ; , ; > U.U.o {.8.Q F.V.i.i./ W.i.: V i.X.Y.Z.| A 2 `.i. +.+++@+#+i...$+;.;.h T ",
"l M ; N ~.!., U.%+%.[.Q &+i.*+s i.t W.i.c.< i.=+Y.-+1 2 3.R.i.;+h.k.>+,+i...r ;.;.h / ",
"l m N , ' > n '+i.)+!+E.~+i.{+]+i.U ^+i.< W i.=+/+i.v.(+_+` i.:+D ++<+[+i.F }.;.h h / ",
"m ; , n o , O ' }+|+|+1+>.*+2+3+3+4+5+6+0.x Y.7+| 8+9+9+0+5.a+:+@+b+E c+d+e+}.;.h h t ",
"; N , O {.n b.o [.p ~ >.r s T t U _ : < x 1.2.y 1 A 3./.` e.6.D 7 l.9 ..e+f+}.h h h t ",
"!., n ' [.O o {.8.Q { S }.T / 9.u : V 0.1.G y | A 2 4.4 5.6.e  .8 E g+F f+h+j.h h h 9.",
"> n O o ! ' %.[.Q ~ >.r s g.t u _ c.< x [ 2.| 1 2 3./.` 5 a.D 8 l.9 ..e+i+b s h h h U ",
", O ' P Q o [.8.~ { r }.T / U |.: < W 1.G y 1 A 3.4.4 5.6.D  .l.E ..F f+h+c T h h h u ",
"~.b.o o j+'.<.<.= 7.k+M - -.!.l+> , , n O b.' o %.[.[.8.m+Q ~ { >.$+r }.}.s [.@.h h u ",
"' o ' -.$ n+n+o+p+p+p+p+p+p+p+p+p+q+q+q+q+q+q+q+q+q+r+r+;.;.;.;.;.;.;.;.h h s+@.@.s+|.",
") O - $ n+n+n+p+p+p+p+p+p+p+p+p+q+q+q+q+q+q+q+q+q+q+r+;.;.;.;.;.;.;.;.h h h h @.@.$ _ ",
"n - $ n+p+p+p+p+p+p+p+p+p+q+q+q+q+q+q+q+q+q+r+;.;.;.;.;.;.;.;.h h h h h h h h h @.$ < ",
", ; '.'.<.= 7.M M - ; !.l+> , , f.O b.o o %.[.8.8.Q ~ t+{ >.r r }.s T g./ t U u u < C "};
