/* XPM */
static char * create_xpm[] = {
"43 26 218 2",
"  	c None",
". 	c #000000",
"+ 	c #000001",
"@ 	c #000103",
"# 	c #000204",
"$ 	c #000307",
"% 	c #000308",
"& 	c #00040A",
"* 	c #00060C",
"= 	c #00070E",
"- 	c #000711",
"; 	c #000812",
"> 	c #000914",
", 	c #000A15",
"' 	c #000C18",
") 	c #000C19",
"! 	c #000D1B",
"~ 	c #000E1E",
"{ 	c #000F1F",
"] 	c #000F22",
"^ 	c #001123",
"/ 	c #001225",
"( 	c #001326",
"_ 	c #001429",
": 	c #00142A",
"< 	c #00152C",
"[ 	c #00172F",
"} 	c #001830",
"| 	c #001833",
"1 	c #001934",
"2 	c #001A36",
"3 	c #001B37",
"4 	c #001B3A",
"5 	c #001D3C",
"6 	c #001E3D",
"7 	c #001F40",
"8 	c #002041",
"9 	c #002044",
"0 	c #002245",
"a 	c #002347",
"b 	c #00244A",
"c 	c #00244B",
"d 	c #002042",
"e 	c #001E3E",
"f 	c #000102",
"g 	c #000205",
"h 	c #000409",
"i 	c #00050B",
"j 	c #00050C",
"k 	c #00070F",
"l 	c #000811",
"m 	c #000912",
"n 	c #000915",
"o 	c #000A16",
"p 	c #000B18",
"q 	c #000E1C",
"r 	c #000E1D",
"s 	c #001021",
"t 	c #001125",
"u 	c #001226",
"v 	c #001328",
"w 	c #00152A",
"x 	c #00162C",
"y 	c #00162E",
"z 	c #001832",
"A 	c #001933",
"B 	c #001935",
"C 	c #001C39",
"D 	c #001D3B",
"E 	c #001E3F",
"F 	c #002143",
"G 	c #002146",
"H 	c #002144",
"I 	c #001730",
"J 	c #000810",
"K 	c #000913",
"L 	c #000B17",
"M 	c #000B19",
"N 	c #000C1A",
"O 	c #000F1E",
"P 	c #001020",
"Q 	c #001023",
"R 	c #001124",
"S 	c #001327",
"T 	c #00132A",
"U 	c #00152B",
"V 	c #00162D",
"W 	c #00172E",
"X 	c #001831",
"Y 	c #001C38",
"Z 	c #001C3A",
"` 	c #001F41",
" .	c #002043",
"..	c #002145",
"+.	c #000206",
"@.	c #000A17",
"#.	c #001227",
"$.	c #001A35",
"%.	c #001A38",
"&.	c #001E3C",
"*.	c #002346",
"=.	c #000F20",
"-.	c #00050A",
";.	c #00060D",
">.	c #000D1A",
",.	c #000D1D",
"'.	c #001122",
").	c #00152E",
"!.	c #001B39",
"~.	c #002244",
"{.	c #002246",
"].	c #002348",
"^.	c #00050D",
"/.	c #00060E",
"(.	c #000710",
"_.	c #000C1B",
":.	c #000D1C",
"<.	c #000F21",
"[.	c #001022",
"}.	c #001329",
"|.	c #00162F",
"1.	c #001731",
"2.	c #001A37",
"3.	c #001B38",
"4.	c #001D3D",
"5.	c #000E1F",
"6.	c #00152D",
"7.	c #001C3B",
"8.	c #000309",
"9.	c #00142B",
"0.	c #A9B2B9",
"a.	c #FEFFFC",
"b.	c #8C9194",
"c.	c #37414B",
"d.	c #8C9399",
"e.	c #374552",
"f.	c #E1E3E3",
"g.	c #707B85",
"h.	c #8C969F",
"i.	c #374A5D",
"j.	c #374D65",
"k.	c #E1E5E6",
"l.	c #708293",
"m.	c #70767B",
"n.	c #E1E3E1",
"o.	c #1B2531",
"p.	c #545D64",
"q.	c #70787E",
"r.	c #A9AFB2",
"s.	c #545F6A",
"t.	c #1B2A3A",
"u.	c #54616D",
"v.	c #1B2C3E",
"w.	c #E1E4E4",
"x.	c #374758",
"y.	c #374859",
"z.	c #A9B1B7",
"A.	c #707D8A",
"B.	c #A9B2B8",
"C.	c #1B344F",
"D.	c #54697C",
"E.	c #1B3653",
"F.	c #37506A",
"G.	c #001224",
"H.	c #A9ADAF",
"I.	c #54606C",
"J.	c #A9B0B5",
"K.	c #A9B1B6",
"L.	c #707D89",
"M.	c #54677B",
"N.	c #A9B4BC",
"O.	c #A9B4BD",
"P.	c #A9B4BE",
"Q.	c #A9ADB0",
"R.	c #54616E",
"S.	c #54626F",
"T.	c #546270",
"U.	c #546576",
"V.	c #54687C",
"W.	c #54697E",
"X.	c #54697F",
"Y.	c #546A80",
"Z.	c #37516C",
"`.	c #545C63",
" +	c #37414C",
".+	c #8C9297",
"++	c #A9AEB2",
"@+	c #8C959D",
"#+	c #374A5E",
"$+	c #E1E4E5",
"%+	c #8C9AA7",
"&+	c #A9B5BF",
"*+	c #545D65",
"=+	c #A9AEB1",
"-+	c #1B2837",
";+	c #A9AFB3",
">+	c #1B2C3F",
",+	c #8C959E",
"'+	c #707C88",
")+	c #1B3046",
"!+	c #8C97A1",
"~+	c #707E8D",
"{+	c #A9B2BA",
"]+	c #374D63",
"^+	c #8C99A5",
"/+	c #A9B3BC",
"(+	c #1B3753",
"_+	c #8C9AA8",
":+	c #708395",
"<+	c #002247",
"[+	c #002349",
"}+	c #002449",
"|+	c #000A14",
"1+	c #000B16",
"2+	c #000306",
"3+	c #001428",
"4+	c #000002",
"5+	c #000104",
". + @ # $ % & * = - ; > , ' ) ! ~ { ] ^ / ( _ : < [ } | 1 2 3 4 5 6 7 8 9 0 a b c d e ",
". f g g % h i j k l m n o p ) q r { s ^ t u v w x y [ z A B 2 C D 5 E 7 d F G a H I z ",
"+ @ g $ h & j = J l K o L M N r O P Q R u S T U V W X | 1 2 Y Z D e 7 `  ...a F [ m { ",
"f # +.h i i = k l m , @.p N q ~ { s ^ / #.v U x y [ z 1 $.%.C D &.E 7 d ..*. .W ; # =.",
"@ g $ -.j ;.k l K > @.' >.,.~ =.'.R / v : U ).[ X A B 2 !.D &.E 7 d ~.{.].b $.l # # P ",
"# $ % & * i ^./.(.l K > o L ) _.:.~ { <.[.R u S }.: < V |.1.z 1 $.2.3.Z D 4.r # # # s ",
"+.% h i ;.j ;.k - ; > , L p N :.r 5.=.[.^ / #.v : U 6.y I X | B 2 3.C 7.5 e ~ # # # s ",
"$ 8.& j = ;./.(.; K n o p ) ! :.~ =.s Q R u S _ 9.< y [ 1.z 1 2 2.!.Z 5 6 E ~ # # g [.",
"% & i = k /.k l ; > o L M N :.r { <.[.R / #.v : < V |.I z A B 2 3.Z 7.4.e 7 O # # g '.",
"h & j k l k (.; K , @.p N ! ,.~ =.s ^ t u v _ 9.< y I X | 0.2 3 !.7.5 e E ` { # # g ^ ",
"& i = (.; (.l K > o L ) _.:.~ { <.[.R u S }.: < V |.I z 1 a.2.3.Z D 4.E 7 d { # # g ^ ",
"* j k J K - ; > b.a.a.c.:.a.d.a.[.e.f.a.g.: U h.a.a.i.| a.a.a.C j.k.a.l.`  .=.# # g ^ ",
";.= J l > l K m.n.o.p.q.:.a.r.s.t.a.u.v.w.x.y.z.[ A.B.1 $.a.!.C.a.D.E.k.F.H =.# # g G.",
"/.k l m , ; > H.H.M N :.r a.s.[.I.a.J.J.w.K.V L.w.a.0.B 2 a.Z M.a.N.O.k.P...s # # g G.",
"k J ; K @.K , H.Q.N ! ,.~ a.s.^ I.a.R.S.T.y.h.w.i.U.0.2 3 a.Z V.a.W.X.Y.Z.0 s # # g / ",
"k l K , ' > o `.a. +.+++{ a.s.R u a.@+: w.z.z.w.#+$+0.2.3.a.D 4.a.%+d k.&+{.[.# g g / ",
"l m n o ) , L p *+=+=+-+=.;+e.t u >+,+K.'+y )+!+0.~+{+]+C ^+/+e (+_+P.:+{.<+[.# g g u ",
"; K , L N o p ) ! :.~ =.s Q R u S }.: < y [ 1.z 1 $.2.!.Z 5 6 E 7 d H ..<+].'.g g g ( ",
"K , o p ! L M N :.r { =.[.R / #.v : U 6.|.I z A B 2 3.Z 7.4.e 7 8  .H {.].[+^ g g g S ",
"> o L ) ! p N ! ,.~ =.s ^ t u v _ 9.< y [ 1.| 1 2 3 !.Z 5 e E ` d H 0 <+[+b ^ g g g S ",
", @.p N r ) _.:.~ { <.[.R / S }.: < V |.I z 1 $.2.3.Z D 4.E 7 d  ...{.].}+c R g g g v ",
"@.p ) M , * ;.;./.k (.J l ; K > |+, , 1+L p ' ) >.! ! :.r r ~ { =.s s [.'.^ ! 2+g g 3+",
"' M p ; $ + + 4+f f f f f f f f f @ @ @ @ @ @ @ @ @ 5+# # # # # # # # # g g 2+2+2++._ ",
") L l $ + + + f f f f f f f f f @ @ @ @ @ @ @ @ @ @ 5+# # # # # # # # g g g g 2+2+$ _ ",
"1+l $ + f f f f f f f f f @ @ @ @ @ @ @ @ @ # # # # # # # # # g g g g g g g g g 2+$ < ",
", m * * ;.= k (.J l m K > |+, , o L p ) ) N ! :.q r ~ { { =.s s '.^ R / / ( S v 3+< D "};
