/* XPM */
static char * prev_xpm[] = {
"16 16 3 1",
" 	c None",
".	c #001832",
"+	c #FFFFFF",
"................",
"................",
"................",
".......+.....+..",
"......++....++..",
".....+.+...+.+..",
"....+..+..+..+..",
"...+...+.+...+..",
"...+...+.+...+..",
"....+..+..+..+..",
".....+.+...+.+..",
"......++....++..",
".......+.....+..",
"................",
"................",
"................"};
