/* XPM */
static char * remove_xpm[] = {
"49 26 247 2",
"  	c None",
". 	c #000000",
"+ 	c #000001",
"@ 	c #000102",
"# 	c #000204",
"$ 	c #000206",
"% 	c #000308",
"& 	c #000409",
"* 	c #00060C",
"= 	c #00060D",
"- 	c #00070F",
"; 	c #000811",
"> 	c #000813",
", 	c #000914",
"' 	c #000A15",
") 	c #000C18",
"! 	c #000C19",
"~ 	c #000D1B",
"{ 	c #000E1D",
"] 	c #000E1F",
"^ 	c #000F20",
"/ 	c #001123",
"( 	c #001224",
"_ 	c #001226",
": 	c #001328",
"< 	c #00142A",
"[ 	c #00152B",
"} 	c #00152C",
"| 	c #00172F",
"1 	c #001830",
"2 	c #001833",
"3 	c #001934",
"4 	c #001A36",
"5 	c #001B37",
"6 	c #001B3A",
"7 	c #001D3B",
"8 	c #001E3D",
"9 	c #001E3F",
"0 	c #001F40",
"a 	c #002042",
"b 	c #002244",
"c 	c #002246",
"d 	c #002347",
"e 	c #00244A",
"f 	c #00254B",
"g 	c #00254D",
"h 	c #00264E",
"i 	c #002851",
"j 	c #000103",
"k 	c #000205",
"l 	c #000307",
"m 	c #000309",
"n 	c #00040A",
"o 	c #00050B",
"p 	c #00070E",
"q 	c #000912",
"r 	c #000A16",
"s 	c #000B18",
"t 	c #000C1C",
"u 	c #000F1F",
"v 	c #001020",
"w 	c #001021",
"x 	c #001124",
"y 	c #001225",
"z 	c #001227",
"A 	c #00162C",
"B 	c #00162E",
"C 	c #001832",
"D 	c #001933",
"E 	c #001C38",
"F 	c #001C3A",
"G 	c #001E3E",
"H 	c #001F3F",
"I 	c #001F41",
"J 	c #002145",
"K 	c #002146",
"L 	c #002348",
"M 	c #002449",
"N 	c #00254A",
"O 	c #001A35",
"P 	c #00050C",
"Q 	c #000810",
"R 	c #000812",
"S 	c #000913",
"T 	c #000B17",
"U 	c #000C1A",
"V 	c #000E1C",
"W 	c #000F1E",
"X 	c #001125",
"Y 	c #00152A",
"Z 	c #00162D",
"` 	c #00172E",
" .	c #001731",
"..	c #001A38",
"+.	c #001C39",
"@.	c #001D3C",
"#.	c #002041",
"$.	c #002043",
"%.	c #002448",
"&.	c #00254C",
"*.	c #000408",
"=.	c #00050A",
"-.	c #001935",
";.	c #002247",
">.	c #001831",
",.	c #001022",
"'.	c #000A17",
").	c #00152E",
"!.	c #002245",
"~.	c #001122",
"{.	c #00050D",
"].	c #00060E",
"^.	c #000D1D",
"/.	c #000E1E",
"(.	c #00152D",
"_.	c #001730",
":.	c #001A37",
"<.	c #001B38",
"[.	c #001C3B",
"}.	c #001D3D",
"|.	c #000207",
"1.	c #000710",
"2.	c #000915",
"3.	c #000D1C",
"4.	c #001429",
"5.	c #00162F",
"6.	c #001B39",
"7.	c #002143",
"8.	c #54595E",
"9.	c #FEFFFC",
"0.	c #8C9093",
"a.	c #A9ADAE",
"b.	c #70777C",
"c.	c #E1E3E2",
"d.	c #37424C",
"e.	c #A9AEB2",
"f.	c #E1E3E3",
"g.	c #C5CACC",
"h.	c #707C87",
"i.	c #E1E4E4",
"j.	c #37495C",
"k.	c #546576",
"l.	c #546678",
"m.	c #374E65",
"n.	c #E1E5E6",
"o.	c #708293",
"p.	c #002144",
"q.	c #70767A",
"r.	c #373F47",
"s.	c #70767B",
"t.	c #1B2631",
"u.	c #545D66",
"v.	c #C5C8C9",
"w.	c #1B2835",
"x.	c #A9AFB2",
"y.	c #C5C9CA",
"z.	c #C5C9CB",
"A.	c #8C949B",
"B.	c #1B2C3D",
"C.	c #54626F",
"D.	c #1B2F43",
"E.	c #546373",
"F.	c #C5CBCE",
"G.	c #1B3148",
"H.	c #C5CBCF",
"I.	c #8C98A3",
"J.	c #8C99A4",
"K.	c #1B3450",
"L.	c #54697D",
"M.	c #1B3653",
"N.	c #37506A",
"O.	c #545A5F",
"P.	c #A9ADAF",
"Q.	c #A9AEB0",
"R.	c #A9AEB1",
"S.	c #545E68",
"T.	c #A9AFB3",
"U.	c #001023",
"V.	c #A9AFB4",
"W.	c #54616C",
"X.	c #546270",
"Y.	c #A9B1B6",
"Z.	c #A9B1B7",
"`.	c #374B5F",
" +	c #E1E4E5",
".+	c #E1E5E5",
"++	c #1B344F",
"@+	c #54687B",
"#+	c #A9B4BC",
"$+	c #A9B4BD",
"%+	c #A9B4BE",
"&+	c #00050E",
"*+	c #545A60",
"=+	c #A9ADB0",
"-+	c #545E67",
";+	c #1B2937",
">+	c #54616D",
",+	c #546779",
"'+	c #54687C",
")+	c #54697E",
"!+	c #546A80",
"~+	c #37516B",
"{+	c #545C64",
"]+	c #37424D",
"^+	c #545F69",
"/+	c #A9B0B4",
"(+	c #54616E",
"_+	c #546370",
":+	c #546372",
"<+	c #8C97A1",
"[+	c #A9B2B9",
"}+	c #707F8E",
"|+	c #70808F",
"1+	c #8C9AA7",
"2+	c #A9B5BE",
"3+	c #373F46",
"4+	c #37414C",
"5+	c #37434F",
"6+	c #707982",
"7+	c #707A83",
"8+	c #707B84",
"9+	c #374656",
"0+	c #A9B0B6",
"a+	c #374859",
"b+	c #A9B1B8",
"c+	c #1B3249",
"d+	c #374D63",
"e+	c #A9B3BB",
"f+	c #374D65",
"g+	c #8C9AA8",
"h+	c #708394",
"i+	c #001327",
"j+	c #001329",
"k+	c #002349",
"l+	c #001326",
"m+	c #000C1B",
"n+	c #000F21",
"o+	c #00142B",
"p+	c #000B19",
"q+	c #00244B",
"r+	c #001428",
"s+	c #000A14",
"t+	c #000B16",
"u+	c #000D1A",
"v+	c #000306",
"w+	c #000002",
"x+	c #000104",
". + @ # $ % & * = - ; > , ' ) ! ~ { ] ^ / ( _ : < [ } | 1 2 3 4 5 6 7 8 9 0 a b c d e f g h i c a ",
". @ j k l m n o p - ; q ' r s ! t { u v w x y z : [ A B | C D 3 4 E F 7 G H I a J K L M N g L D O ",
"+ @ k $ % & o P - Q R S r T s U V W u w / X _ : Y [ Z `  .C 3 O ..+.7 @.9 0 #.$.J d %.e &.L C S w ",
"@ j $ *.=.n P p - ; q ' r s ! t { u v w x y z : [ A B | C D -.4 E F 7 G H I a J K L M N ;.>.S k ,.",
"j # k m =.* = - ; > , '.) ! ~ { u ^ / ( _ : < [ ).| 1 2 3 4 5 6 7 8 H I a !.c d e f g h +.q # k ~.",
"j k l & n n o {.].- ; R , ' '.s U ~ ^./.u w ,.x y z : < [ (.B _. .C 3 O :.<.F [.}.G 0 I u # # k ~.",
"# |.% & * n P = - 1.R S 2.r T ! U 3.{ ] ^ ,./ X _ : 4.< } Z 5._.C D -.4 <.6.F @.8 9 0 a u # # k / ",
"$ l & n = o {.].- ; R , ' T s U ~ ^./.^ w ,.x y z : < [ (.B _. .C 3 O :.<.F 7 }.G 0 I $.^ # # k / ",
"l % & o = P = - 1.R S 2.r s ! U 3.{ ] ^ ,./ X _ : 4.< } Z 5._.C D -.4 <.6.[.@.8 9 0 a 7.^ # # k x ",
"l & n P p {.].8.9.0.a.' b.9.c.d.^.e.c.9.f.f.9.g.: < h.9.i.j.>.9.k.O l.9.F m.n.9.o.I $.p.w # # k x ",
"% n o P - = - 8.9.q.r.s.c.t.u.v.w.x.y.,.z.A.B.9.C.h.i.D.E.F.G.H.I.4 J.J.K.9.L.M.n.N.7.J w # # k ( ",
"& n P p ; ].1.O.9., ' P.c.Q.R.9.S.x.T.U.V.W.z 9.X.Y.Z.B _.9.k.`. +:..+++@+9.#+$+n.%+p.c w # # k y ",
"n o &+- ; - 1.*+9.2.r =+v.u.u.-+;+x.T./ V.>+: 9.X.Y.Z.5._.9.k.-. +,+.+[.'+9.)+)+!+~+J c ,.# k k y ",
"n P p Q R 1.; *+9.r T {+9.d.]+9.^+T.T.x /+(+: 9._+:+9.j.<+[+3 4 }+9.|+7 }.9.1+#.n.2+c ;.,.# k k y ",
"* &+- ; S 1.R 3+P.r s ! 4+R.e.5+^ 6+7+X 8+9+4.0+a+B j.b+<+c+-.4 d+e+f+@.G M.g+%+h+J c L ,.k k k _ ",
"= p Q ; , ; > , r T s U ~ { /.^ w U.x _ i+j+< [ (.B _.>.2 3 4 :.6.F 7 }.G 0 #.$.p.c ;.k+~.k k k l+",
"p - ; q , R S ' r s ! m+3./.u n+,./ X _ : 4.o+} B |  .C D -.4 <.+.[.@.G 9 I a p.J c L M / k k k i+",
"p Q ; S ' > , r T p+U ~ { /.^ w U.x _ i+j+< } (.B _.>.2 3 4 5 6.F @.}.G 0 #.$.p.c ;.k+e / k k k i+",
"- ; q 2.'.S ' r s ! m+3./.u n+,.x y _ : 4.o+} B |  .C 3 -.4 <.+.[.@.G 9 I a p.J ;.L M q+/ k k k i+",
"; ; S ' ) , r T p+U 3.{ /.^ w U.x _ i+j+< } (.B _.>.2 3 4 5 6.F @.}.9 0 #.$.p.c ;.k+e &.x k k k : ",
"R q 2.r ! ' r s ! ~ 3./.u n+,.x y _ : 4.o+} B |  .C 3 -.:.<.+.[.@.G H I a p.J ;.L M q+&.( k k k r+",
"R S ' ' ; =.o P * = = ].- - 1.; R q S , s+' r t+T s ) ! u+~ ~ 3.3.{ /.u u ^ w w ,.~./ x ~ v+k $ r+",
"S 2., - v++ + + + + w+@ @ @ @ @ @ @ @ @ @ j j j j j j j j j j x+# # # # # # # # # k k k v+v+v+v+4.",
", S p k + + + + + + w+@ @ @ @ @ @ @ @ @ j j j j j j j j j j x+x+# # # # # # # # # k k k k v+v+l 4.",
"q ].k + + + + @ @ @ @ @ @ @ @ @ @ j j j j j j j j j x+# # # # # # # # # k k k k k k k k k k l l } ",
"; - n =.o P * = p - - Q ; ; q S , s+' ' r T s s ! U u+~ 3.{ { /.u u ^ w w ~./ / ( y _ l+i+: 4.} 7 "};
